<?xml version="1.0" encoding="utf-8"?>
<!-- Generator: Adobe Illustrator 19.0.0, SVG Export Plug-In . SVG Version: 6.00 Build 0)  -->
<svg version="1.1" id="Layer_1" xmlns="http://www.w3.org/2000/svg" xmlns:xlink="http://www.w3.org/1999/xlink" x="0px" y="0px"
	 viewBox="0 0 444 560" style="enable-background:new 0 0 444 560;" xml:space="preserve">
<style type="text/css">
	.st0{fill:#F44336;stroke:#000000;stroke-miterlimit:10;}
	.st1{fill:#FF8A80;stroke:#000000;stroke-miterlimit:10;}
</style>
<polygon id="XMLID_6_" class="st0" points="154.5,396 154.5,496 241.1,446 "/>
<polyline id="XMLID_11_" class="st0" points="156.2,294.8 242.8,244.8 416,344.8 329.8,395.1 329.6,395.4 156,295.2 "/>
<polyline id="XMLID_4_" class="st1" points="23.5,119 23.5,219.5 24,219.5 283.8,69.3 197.2,19.1 24,119.1 "/>
<polyline id="XMLID_5_" class="st0" points="110.1,170 23.5,220 23.5,420 110.1,370.5 110.5,370.5 110.5,170 "/>
<polyline id="XMLID_1_" class="st1" points="283.5,371 283.5,270.5 283.6,270.5 23.8,420.6 110.4,470.7 283.3,370.9 "/>
<polygon id="XMLID_2_" class="st0" points="284.5,170 284.5,70 197.9,120 "/>
<polyline id="XMLID_10_" class="st1" points="154.5,194 154.5,294.5 155,294.5 414.8,144.3 328.2,94.1 155,194.1 "/>
<polyline id="XMLID_9_" class="st1" points="414.5,446 414.5,345.5 414.6,345.5 154.8,495.6 241.4,545.7 414.3,445.9 "/>
<polygon id="XMLID_7_" class="st0" points="415.5,245 415.5,145 328.9,195 "/>
</svg>
