<?xml version="1.0" encoding="iso-8859-1"?>
<!-- Generator: Adobe Illustrator 19.1.1, SVG Export Plug-In . SVG Version: 6.00 Build 0)  -->
<svg xmlns="http://www.w3.org/2000/svg" xmlns:xlink="http://www.w3.org/1999/xlink" version="1.1" x="0px" y="0px" viewBox="0 0 50 50" enable-background="new 0 0 50 50" xml:space="preserve" fill="#ffffff" width="50px" height="50px">
<path display="none" d="M14.617,28.417c-0.193-0.478-0.387-0.956-0.58-1.433c-0.483-1.339-0.29-2.581,0.677-3.632  c0.773-0.861,1.74-1.53,2.996-1.625c0.774-0.096,1.45,0.095,2.03,0.478c0.097,0.095,0.193,0.095,0.387,0.191  c-0.097-0.287-0.194-0.478-0.29-0.765c-0.967-2.963-2.03-5.926-2.997-8.888c-0.386-1.243-0.676-2.485-0.966-3.728  c0-1.147,0.096-2.198,0.483-3.154c0.773-1.625,2.223-2.007,3.383-1.816c0.773,0.191,1.257,0.669,1.643,1.243  c0.87,1.146,1.547,2.389,2.224,3.727c1.353,2.676,2.319,5.544,3.286,8.411c0.193,0.573,0.387,1.051,0.58,1.625  c0,0.095,0.097,0.095,0.193,0.191c0.194-0.574,0.484-1.147,0.677-1.816c0.773-2.39,1.643-4.779,2.803-6.977  c0.677-1.434,1.45-2.963,2.513-4.206c0.097-0.286,0.387-0.478,0.58-0.669c1.353-1.242,3.19-0.86,4.06,0.287  c0.773,0.956,0.967,2.007,0.87,3.154c-0.193,1.625-0.677,3.25-1.16,4.875c-0.87,2.58-1.837,5.161-2.707,7.741  c0,0.096-0.096,0.191-0.096,0.287c0.193,0.096,0.386,0.096,0.58,0.191c1.16,0.382,2.32,0.86,2.996,1.912  c0.484,0.764,0.774,1.624,0.967,2.485c0.29,1.433,0.29,2.867,0.193,4.301c-0.096,1.911-0.483,3.823-1.16,5.543  c-1.45,3.536-3.769,6.308-7.249,8.029c-1.74,0.86-3.673,1.433-5.607,1.529c-2.706,0.287-5.316-0.096-7.829-1.147  c-3.287-1.338-6.573-4.683-7.54-7.742c-0.483-1.529-0.676-2.963-0.483-4.588c0.29-2.007,1.547-3.345,3.48-3.918  C13.941,28.513,14.327,28.513,14.617,28.417z M14.134,33.77c0.096,0.191,0.29,0.286,0.386,0.477c0.484,0.574,0.87,1.147,1.354,1.721  c0.58,0.669,1.16,1.338,1.933,1.625c0.677,0.286,1.257,0.286,1.933,0c0.58-0.287,0.677-0.669,0.58-1.243  c-0.097-0.191-0.193-0.382-0.29-0.573c-0.677-1.338-1.546-2.581-2.61-3.632c-0.58-0.574-1.063-1.147-1.74-1.625  c-0.58-0.478-1.16-0.478-1.739-0.096c-0.87,0.574-1.45,1.338-1.74,2.39c-0.29,1.051-0.097,2.102,0.29,3.058  c0.966,2.581,2.609,4.684,4.929,6.117c3.48,2.198,7.25,2.676,11.116,1.434c4.447-1.434,7.25-4.588,8.796-8.889  c0.677-1.816,0.774-3.823,0.774-5.734c0-0.956-0.097-1.912-0.387-2.772c-0.29-0.765-0.773-1.434-1.547-1.816  c-0.483-0.191-0.87-0.382-1.353-0.574c-2.996-1.051-6.089-1.338-9.183-1.624c-0.676,0-1.256,0-1.933,0.191  c-0.483,0.191-0.87,0.478-0.87,1.051c-0.096,1.147,0.29,2.103,1.257,2.772c0.676,0.478,1.546,0.764,2.416,0.956  c1.934,0.382,3.963,0.382,5.993,0.382c0.484,0,0.87,0,1.354,0.095c0.483,0.096,0.58,0.478,0.676,0.956  c0.097,0.383-0.193,0.574-0.483,0.669c-0.58,0.287-1.063,0.478-1.643,0.669c-2.32,0.861-4.06,2.39-5.317,4.492  c-0.87,1.53-1.16,3.154-0.483,4.875c0.193,0.382,0.29,0.764,0.387,1.242c0.096,0.383,0.193,0.861,0.096,1.338  c-0.966-0.191-1.546-0.669-2.03-1.433c-0.386-0.765-0.579-1.625-0.676-2.485c-0.097-0.478-0.097-0.956-0.097-1.434  c-0.58,0.382-1.256,0.287-1.933,0.191c0,0.191,0.097,0.287,0.097,0.383c0.29,1.147-0.194,2.198-1.16,2.867  c-0.774,0.573-1.74,0.573-2.61,0.382c-1.547-0.382-2.707-1.338-3.673-2.58c-0.484-0.669-0.967-1.434-1.063-2.199  C13.651,34.63,13.651,34.247,14.134,33.77z M25.733,20.484v-0.095c-0.87-2.581-1.74-5.257-2.706-7.838  c-0.58-1.624-1.257-3.345-1.934-4.97C20.9,7.104,20.61,6.626,20.127,6.243C19.257,5.67,18.29,5.957,18,6.912  c-0.096,0.383-0.193,0.765-0.096,1.147c0,1.147,0.29,2.199,0.676,3.25c1.16,3.154,2.223,6.308,3.383,9.462  C23.123,20.006,24.477,20.484,25.733,20.484z M33.079,21.536c0-0.096,0.097-0.096,0.097-0.191c1.353-3.632,2.61-7.264,3.77-10.992  c0.193-0.764,0.386-1.433,0.29-2.294c-0.097-0.764-0.58-1.147-1.16-1.242c-0.484,0-0.967,0.191-1.257,0.573  c-0.58,0.669-0.966,1.434-1.256,2.199c-1.547,3.631-2.707,7.359-3.963,11.086c0,0,0,0.096,0,0.192  C30.663,21.058,31.823,21.249,33.079,21.536z M24.283,33.005c0-0.191,0-0.382-0.096-0.574c-0.29-0.669-0.484-1.338-0.774-2.102  c-0.773-1.816-1.74-3.632-2.996-5.257c-0.387-0.478-0.87-0.956-1.45-1.242c-1.257-0.574-3.093,0.573-2.997,2.007v0.095  c0.194,0.478,0.29,1.052,0.484,1.529c1.063,2.103,2.513,3.919,4.156,5.64c0.483,0.477,1.063,0.955,1.74,1.242  C23.317,34.725,24.283,34.056,24.283,33.005z M26.12,32.049c0.773-1.147,1.836-1.911,2.996-2.772  c-1.546-0.095-2.996-0.286-4.35-0.764C25.153,29.66,25.636,30.807,26.12,32.049z" fill="#ffffff"/>
<path d="M29.6,20.867c1.075,0.118,3.819,0.464,5.717,0.738c0.783-2.23,2.077-5.894,2.692-7.715c0.483-1.625,0.967-3.25,1.16-4.875  c0.097-1.147-0.097-2.198-0.87-3.154c-0.87-1.147-2.146-0.986-3.499,0.256c-0.193,0.191-0.483,0.383-0.58,0.669  c-1.063,1.243-1.836,2.772-2.513,4.206c-1.16,2.198-2.852,6.954-3.625,9.344c-0.037,0.13-0.087,0.244-0.131,0.366  c-0.023-0.002-0.046-0.005-0.069-0.007C28.561,20.763,29.232,20.83,29.6,20.867z" fill="#ffffff"/>
<path d="M19.558,20.772c0.052,0.02,0.104,0.038,0.181,0.075c0.373,0.229,0.519,0.354,0.685,0.5c0.189,0.169,0.403,0.387,0.625,0.626  c0.192-0.435,0.489-0.843,0.913-1.203c1.16-0.765,2.514-0.287,3.77-0.287c0,0,0.606,0.059,1.353,0.133  c-1.066-3.237-2.966-9.222-4.192-11.647c-0.677-1.338-1.354-2.581-2.224-3.727C20.284,4.669,19.8,4.191,19.027,4  c-1.16-0.191-1.897,0.236-2.67,1.861c-0.387,0.956-0.483,2.007-0.483,3.154c0.29,1.243,0.58,2.485,0.966,3.728  C17.401,14.46,18.624,18.033,19.558,20.772z" fill="#ffffff"/>
<path d="M26.12,32.049c0.773-1.147,1.836-1.911,2.996-2.772c-1.428-0.088-2.771-0.268-4.035-0.67  c0.365,0.583,0.734,1.174,0.849,1.963c0.059,0.402,0.062,1.092-0.105,1.858C25.92,32.305,26.017,32.181,26.12,32.049z" fill="#ffffff"/>
<path d="M39.916,27.595c-0.039-0.363-0.094-0.726-0.167-1.089c-0.069-0.306-0.156-0.61-0.253-0.912  c-0.297-0.579-0.725-1.075-1.347-1.382c-0.483-0.191-0.87-0.382-1.353-0.574c-2.996-1.051-8.066-1.338-11.16-1.624  c-0.676,0-1.256,0-1.933,0.191c-0.483,0.191-0.87,0.478-0.87,1.051c-0.039,0.471,0.025,0.9,0.155,1.301  c0.197,0.318,0.388,0.653,0.576,1c0.154,0.167,0.32,0.329,0.526,0.472c0.676,0.478,1.546,0.764,2.416,0.956  c1.934,0.382,3.963,0.382,5.993,0.382c0.484,0,0.87,0,1.354,0.095c0.483,0.096,0.58,0.478,0.676,0.956  c0.097,0.383-0.193,0.574-0.483,0.669c-0.58,0.287-1.063,0.478-1.643,0.669c-2.32,0.861-4.06,2.39-5.317,4.492  c-0.87,1.53-1.16,3.154-0.483,4.875c0.193,0.382,0.29,0.764,0.387,1.242c0.096,0.383,0.193,0.861,0.096,1.338  c-0.966-0.191-1.546-0.669-2.03-1.433c-0.386-0.765-0.579-1.625-0.676-2.485c-0.097-0.478-0.097-0.956-0.097-1.434  c0.065-0.592,0.154-1.081,0.265-1.501c-0.281,0.289-0.595,0.565-0.991,0.796c-0.489,0.322-1.233,0.357-1.862,0.304  c0.049,0.108,0.101,0.218,0.145,0.323c0,0.191,0.097,0.287,0.097,0.383c0.29,1.147-0.194,2.198-1.16,2.867  c-0.774,0.573-1.74,0.573-2.61,0.382c-1.547-0.382-2.957-1.408-3.923-2.65c-0.484-0.669-0.967-1.434-1.063-2.199  c-0.29-0.764-0.29-1.147,0.193-1.624c0.096,0.191,0.29,0.286,0.386,0.477c0.484,0.574,0.87,1.147,1.354,1.721  c0.58,0.669,1.41,1.408,2.183,1.695c0.677,0.286,1.257,0.286,1.933,0c0.58-0.287,0.677-0.669,0.58-1.243  c-0.097-0.191-0.193-0.382-0.29-0.573c-0.677-1.338-1.546-2.581-2.61-3.632c-0.58-0.574-3.159-3.501-4.773-2.721  c-1.123,0.715-1.851,1.816-2.062,3.276c-0.193,1.625,0,3.059,0.483,4.588c0.967,3.059,4.253,6.404,7.54,7.742  c2.513,1.051,5.123,1.434,7.829,1.147c1.934-0.096,3.867-0.669,5.607-1.529c3.48-1.721,5.799-4.493,7.249-8.029  c0.677-1.72,1.064-3.632,1.16-5.543c0.014-0.214,0.021-0.428,0.031-0.642C39.973,29.562,39.973,28.525,39.916,27.595z" fill="#ffffff"/>
<path d="M24.082,31.597c0-1.597-3.475-7.037-4.731-8.662c-0.517-0.669-1.129-1.326-2.052-1.155  c-1.029,0.192-1.895,0.805-2.584,1.572c-0.047,0.051-0.083,0.104-0.127,0.156c-0.245,0.394-0.387,0.798-0.363,1.159v0.095  c-0.003,0.738,0.29,1.052,0.484,1.529c0.675,1.335,2.029,3.059,3.512,4.69c0.069,0.073,0.137,0.149,0.206,0.223  c0.41,0.447,0.826,0.891,1.24,1.325c0.707,0.698,1.517,1.855,2.655,1.356c0.716-0.314,1.423-1.114,1.68-1.851  C24.054,31.886,24.082,31.74,24.082,31.597z" fill="#ffffff"/>
</svg>
